<svg xmlns="http://www.w3.org/2000/svg" width="1200" height="630" viewBox="0 0 1200 630">
  <!-- Background -->
  <rect width="1200" height="630" fill="#0a0a0b"/>

  <!-- SmileLogo with bubblegum, centered -->
  <g transform="translate(495, 80) scale(1.7)">
    <!-- Face outline -->
    <path d="M50 10 C25 10 10 30 10 50 C10 75 25 90 50 90 C75 90 90 75 90 50 C90 25 75 10 50 10 Z" stroke="white" stroke-width="6" stroke-linecap="round" stroke-linejoin="round" fill="none"/>
    <!-- Eyes -->
    <circle cx="35" cy="42" r="5" fill="white"/>
    <circle cx="60" cy="42" r="5" fill="white"/>
    <!-- Smile -->
    <path d="M 30 60 Q 45 72 65 58" stroke="white" stroke-width="6" stroke-linecap="round" fill="none"/>
    <!-- Bubblegum -->
    <circle cx="82" cy="65" r="24" fill="#FF69B4" stroke="white" stroke-width="3"/>
    <path d="M 72 55 Q 78 50 88 52" stroke="#FFB6C1" stroke-width="3" stroke-linecap="round" fill="none"/>
  </g>

  <!-- "Fly Labs" in brand green -->
  <text x="600" y="380" font-family="system-ui, -apple-system, 'Segoe UI', Roboto, sans-serif" font-size="84" font-weight="900" fill="#00cc00" text-anchor="middle" letter-spacing="-2">Fly Labs</text>

  <!-- Tagline -->
  <text x="600" y="435" font-family="system-ui, -apple-system, 'Segoe UI', Roboto, sans-serif" font-size="26" font-weight="600" fill="#999999" text-anchor="middle">Vibe building things I wish existed</text>

  <!-- Subtitle -->
  <text x="600" y="478" font-family="system-ui, -apple-system, 'Segoe UI', Roboto, sans-serif" font-size="20" font-weight="500" fill="#555555" text-anchor="middle">AI tools, templates, and prompts. Free and open source.</text>
</svg>
